<svg xmlns="http://www.w3.org/2000/svg" xmlns:xlink="http://www.w3.org/1999/xlink" width="120" zoomAndPan="magnify"
    viewBox="0 0 90 78.749999" height="105" preserveAspectRatio="xMidYMid meet" version="1.0">
    <defs>
        <clipPath id="acd632f858">
            <path d="M 5.75 0 L 84.25 0 L 84.25 78.5 L 5.75 78.5 Z M 5.75 0 " clip-rule="nonzero" />
        </clipPath>
    </defs>
    <g clip-path="url(#acd632f858)">
        <path fill="#1f130d"
            d="M 84.261719 23.109375 C 84.261719 16.730469 79.089844 11.554688 72.707031 11.554688 C 72.707031 5.175781 67.535156 0 61.152344 0 C 54.53125 0 48.851562 4.730469 47.652344 11.242188 L 45.007812 25.617188 L 42.359375 11.242188 C 41.160156 4.730469 35.480469 0.00390625 28.859375 0.00390625 C 22.476562 0.00390625 17.304688 5.175781 17.304688 11.554688 C 10.921875 11.554688 5.75 16.730469 5.75 23.109375 C 5.75 29.734375 10.476562 35.410156 16.992188 36.609375 L 31.363281 39.257812 L 16.992188 41.90625 C 10.476562 43.105469 5.75 48.78125 5.75 55.402344 C 5.75 61.785156 10.921875 66.960938 17.304688 66.960938 C 17.304688 73.339844 22.476562 78.515625 28.859375 78.515625 C 35.480469 78.515625 41.160156 73.785156 42.359375 67.273438 L 45.007812 52.898438 L 47.652344 67.273438 C 48.851562 73.785156 54.53125 78.515625 61.152344 78.515625 C 67.535156 78.515625 72.707031 73.339844 72.707031 66.960938 C 79.089844 66.960938 84.261719 61.785156 84.261719 55.402344 C 84.261719 48.78125 79.535156 43.105469 73.019531 41.90625 L 58.648438 39.257812 L 73.019531 36.609375 C 79.535156 35.410156 84.261719 29.734375 84.261719 23.109375 "
            fill-opacity="1" fill-rule="nonzero" />
    </g>
</svg>