<svg xmlns="http://www.w3.org/2000/svg" xmlns:xlink="http://www.w3.org/1999/xlink" width="203" zoomAndPan="magnify"
    viewBox="0 0 152.25 84.749997" height="113" preserveAspectRatio="xMidYMid meet" version="1.0">
    <defs>
        <clipPath id="afcbc6b0b1">
            <path d="M 128 21 L 151.503906 21 L 151.503906 72 L 128 72 Z M 128 21 " clip-rule="nonzero" />
        </clipPath>
        <clipPath id="d1093d774b">
            <path d="M 0 26.824219 L 48.714844 26.824219 L 48.714844 83.609375 L 0 83.609375 Z M 0 26.824219 "
                clip-rule="nonzero" />
        </clipPath>
        <clipPath id="fa01b6ee91">
            <path d="M 9 0.0820312 L 52 0.0820312 L 52 30 L 9 30 Z M 9 0.0820312 " clip-rule="nonzero" />
        </clipPath>
    </defs>
    <path fill="#231f20"
        d="M 115.027344 44.058594 C 115.011719 44.03125 114.996094 44.007812 114.980469 43.980469 C 113.242188 41.527344 111.140625 39.320312 109.097656 37.113281 C 107.199219 35.289062 105.066406 33.726562 103.214844 31.851562 C 104.898438 35.726562 107.886719 38.96875 111.195312 41.554688 C 112.4375 42.449219 113.789062 43.167969 115.027344 44.058594 "
        fill-opacity="1" fill-rule="nonzero" />
    <path fill="#231f20"
        d="M 121.527344 54.050781 C 121.097656 50.828125 119.179688 47.898438 116.628906 45.914062 C 118.023438 48.375 118.902344 50.859375 119.539062 53.550781 C 120.121094 56.324219 120.875 58.25 120.742188 61.339844 C 121.863281 59.089844 121.890625 56.488281 121.527344 54.050781 "
        fill-opacity="1" fill-rule="nonzero" />
    <path fill="#231f20"
        d="M 138.890625 45.84375 C 135.40625 46.757812 131.773438 47.082031 128.003906 47.25 C 125.277344 47.382812 123.003906 47.550781 120.253906 46.644531 C 125.683594 50.792969 133.800781 49.625 139.097656 45.796875 C 139.027344 45.8125 138.960938 45.832031 138.890625 45.84375 "
        fill-opacity="1" fill-rule="nonzero" />
    <path fill="#231f20"
        d="M 129.171875 51.480469 C 126.085938 53.402344 124.097656 56.691406 122.945312 60.058594 C 126.410156 56.085938 130.320312 52.558594 134.351562 49.175781 C 132.570312 49.8125 130.785156 50.488281 129.171875 51.480469 "
        fill-opacity="1" fill-rule="nonzero" />
    <path fill="#231f20"
        d="M 120.539062 68.613281 C 120.203125 67.097656 120.03125 66.050781 120.179688 64.621094 C 118.601562 67.121094 119.003906 71.152344 121.535156 72.707031 C 120.789062 72.828125 120.046875 72.960938 119.304688 73.097656 C 117.136719 72.699219 114.964844 71.96875 113.082031 70.910156 C 109.425781 68.820312 107.160156 66.519531 104.597656 63.472656 C 101.859375 59.730469 98.941406 55.429688 97.996094 50.992188 C 97.191406 47.214844 97.34375 43.28125 98.058594 39.46875 C 98.417969 37.871094 98.816406 36.277344 99.328125 34.71875 C 99.675781 33.667969 100.171875 32.664062 100.382812 31.570312 C 99.894531 32.464844 99.222656 33.238281 98.65625 34.085938 C 98.050781 35.015625 97.511719 36 97.042969 37.011719 C 97.089844 36.03125 97.089844 35.101562 97.050781 34.230469 C 96.949219 32.867188 96.707031 31.519531 96.488281 30.171875 C 96.066406 34.25 95.285156 37.855469 94.285156 41.78125 C 93.515625 45.207031 92.726562 48.636719 91.605469 51.96875 C 89.835938 56.421875 89 60.839844 86.6875 65.148438 C 90.421875 61.472656 93.4375 54.71875 95.242188 47.945312 C 95.652344 52.550781 97.371094 57.054688 100.042969 60.855469 C 102.671875 65.179688 106.136719 69.085938 110.375 71.90625 C 112.042969 72.894531 113.898438 73.527344 115.808594 73.816406 C 119.664062 75.058594 124.089844 74.152344 127.726562 71.945312 C 125.269531 72.171875 123.476562 72.449219 122.355469 72.582031 C 121.277344 71.527344 120.851562 70.230469 120.539062 68.613281 "
        fill-opacity="1" fill-rule="nonzero" />
    <path fill="#231f20"
        d="M 117.542969 21.851562 C 122.496094 20.449219 127.445312 19.390625 132.480469 20.457031 C 132.125 20.273438 131.761719 20.101562 131.394531 19.9375 C 121.246094 15.273438 106.566406 22.261719 101.179688 31.390625 C 104.03125 28.890625 106.90625 27.070312 110.148438 25.25 C 112.515625 23.917969 114.914062 22.605469 117.542969 21.851562 "
        fill-opacity="1" fill-rule="nonzero" />
    <g clip-path="url(#afcbc6b0b1)">
        <path fill="#231f20"
            d="M 151.265625 43.746094 C 150.816406 37.734375 147.777344 32.09375 143.785156 27.65625 C 140.777344 24.53125 136.828125 22.410156 132.738281 21.023438 C 137.667969 24.679688 142.179688 28.378906 145.523438 33.695312 C 149 39.753906 150.785156 46.800781 147.707031 53.589844 C 147.714844 53.582031 147.722656 53.570312 147.730469 53.5625 C 147.324219 54.339844 146.894531 55.101562 146.390625 55.816406 C 144.753906 58.011719 142.972656 60.007812 141.078125 61.871094 C 141.183594 61.425781 141.128906 61.035156 140.859375 60.753906 C 139.3125 59.011719 133.234375 64.5625 134.851562 66.242188 C 135.082031 66.5 135.410156 66.59375 135.796875 66.570312 C 133.617188 68.347656 131.332031 70.0625 128.96875 71.800781 C 137.675781 68.980469 146.320312 62.558594 148.058594 53.164062 C 150.171875 50.511719 151.492188 47.15625 151.265625 43.746094 "
            fill-opacity="1" fill-rule="nonzero" />
    </g>
    <path fill="#231f20"
        d="M 117.992188 68.6875 C 117.796875 68.789062 117.597656 68.890625 117.402344 69 C 116.183594 69.597656 115.296875 70.511719 113.871094 70.695312 C 115.578125 71.363281 117.101562 70.019531 117.992188 68.6875 "
        fill-opacity="1" fill-rule="nonzero" />
    <path fill="#231f20"
        d="M 76.367188 66.707031 C 70.40625 65.84375 64.515625 64.375 59.03125 61.878906 C 55.734375 60.621094 53.011719 58.527344 50.851562 55.699219 C 50.707031 54.917969 50.570312 54.183594 50.492188 53.542969 C 50.496094 53.578125 50.5 53.609375 50.503906 53.644531 C 50.148438 49.898438 50.558594 46.125 50.921875 42.394531 C 51.332031 37.933594 53.046875 33.144531 55.113281 28.84375 C 57.011719 25.164062 58.355469 21.179688 61.230469 18.09375 C 60.179688 18.714844 59.1875 19.4375 58.320312 20.296875 C 56.664062 22.117188 55.117188 24.285156 53.761719 26.671875 C 53.953125 25.035156 53.925781 23.605469 53.472656 23.601562 C 52.65625 23.339844 51.65625 28.429688 51.832031 30.503906 C 48.328125 38.433594 47.035156 47.835938 50.386719 55.085938 C 52.574219 62.117188 58.628906 64.652344 65.191406 66.570312 C 71.917969 68.523438 80.257812 70.78125 86.183594 65.769531 C 84.980469 66.214844 83.761719 66.636719 82.484375 66.820312 C 80.914062 67.117188 78.265625 66.9375 76.367188 66.707031 "
        fill-opacity="1" fill-rule="nonzero" />
    <path fill="#231f20"
        d="M 71.917969 16.71875 C 74.53125 16.734375 76.171875 16.71875 78.925781 17.359375 C 86.433594 19.242188 92.960938 23.652344 97.445312 29.898438 C 96.59375 27.519531 95.398438 25.253906 93.847656 23.253906 C 91.949219 20.828125 89.324219 19.125 86.570312 17.792969 C 78.535156 13.714844 67.820312 12.699219 60.300781 18.378906 C 64.085938 16.980469 67.980469 16.644531 71.917969 16.71875 "
        fill-opacity="1" fill-rule="nonzero" />
    <path fill="#231f20"
        d="M 94.222656 33.09375 C 92.09375 37.203125 90.027344 41.359375 88.425781 45.707031 C 86.429688 50.46875 85.496094 55.617188 85.886719 60.769531 C 88.132812 50.417969 93.832031 41.109375 95.472656 30.609375 C 95.050781 31.433594 94.640625 32.265625 94.222656 33.09375 "
        fill-opacity="1" fill-rule="nonzero" />
    <path fill="#231f20"
        d="M 88.644531 40.5625 C 87.652344 41.078125 86.691406 41.664062 85.660156 42.101562 C 83.371094 42.933594 81.085938 43.78125 78.765625 44.523438 C 76.011719 43.441406 72.925781 43.089844 69.996094 42.808594 C 74.117188 44.84375 78.289062 46.140625 82.222656 48.765625 C 84.035156 49.789062 84.882812 51.210938 85.671875 53.394531 C 85.628906 52.441406 85.621094 51.476562 85.398438 50.542969 C 85 49.167969 84.03125 48.0625 82.980469 47.128906 C 81.898438 46.109375 80.675781 45.351562 79.367188 44.773438 C 82.984375 45.035156 86.625 43.722656 88.644531 40.5625 "
        fill-opacity="1" fill-rule="nonzero" />
    <path fill="#231f20"
        d="M 65.5625 41.390625 C 61.457031 39.351562 57.324219 37.449219 53.71875 34.578125 C 56.398438 39.472656 60.152344 41.136719 65.582031 41.398438 C 65.574219 41.394531 65.566406 41.390625 65.5625 41.390625 "
        fill-opacity="1" fill-rule="nonzero" />
    <path fill="#231f20"
        d="M 52.84375 39.882812 C 54.449219 39.65625 56.082031 39.726562 57.703125 39.679688 C 57.078125 39.390625 56.433594 39.113281 55.742188 39.042969 C 54.714844 38.9375 53.664062 39.277344 52.84375 39.882812 "
        fill-opacity="1" fill-rule="nonzero" />
    <path fill="#231f20"
        d="M 44.195312 44.398438 C 42.761719 46.011719 41.320312 47.632812 39.667969 49.03125 C 35.980469 52.285156 32.027344 54.207031 27.707031 56.34375 C 35.796875 55.628906 41.402344 52.183594 44.195312 44.398438 "
        fill-opacity="1" fill-rule="nonzero" />
    <path fill="#231f20"
        d="M 4.296875 60.25 C 6.039062 58.617188 8.0625 57.683594 10.167969 56.664062 C 10.164062 56.664062 10.160156 56.664062 10.15625 56.664062 C 7.578125 56.519531 5.144531 57.714844 4.296875 60.25 "
        fill-opacity="1" fill-rule="nonzero" />
    <path fill="#231f20"
        d="M 44.714844 47.496094 C 43.515625 52.101562 43.027344 56.859375 42.8125 61.601562 C 42.609375 66.054688 43.726562 70.429688 44.605469 74.761719 C 44.914062 71.710938 44.929688 68.636719 44.957031 65.570312 C 45 62.378906 45.261719 59.1875 45.183594 55.992188 C 44.996094 53.160156 44.878906 50.328125 44.714844 47.496094 "
        fill-opacity="1" fill-rule="nonzero" />
    <path fill="#231f20"
        d="M 42.53125 55.050781 C 41.996094 53.253906 39.957031 52.996094 38.347656 53.253906 C 40.792969 54.101562 41.566406 54.332031 42.839844 56.816406 C 42.84375 56.214844 42.761719 55.613281 42.53125 55.050781 "
        fill-opacity="1" fill-rule="nonzero" />
    <g clip-path="url(#d1093d774b)">
        <path fill="#231f20"
            d="M 45.46875 66.070312 C 45.015625 69.464844 45.210938 72.910156 44.320312 75.964844 C 43.320312 76.640625 42.300781 77.289062 41.253906 77.886719 C 35.296875 81.347656 27.589844 81.613281 20.941406 80.996094 C 18.328125 80.660156 14.734375 79.804688 12.070312 78.9375 C 10.820312 78.496094 9.265625 77.675781 7.972656 76.902344 C 7.832031 76.722656 7.691406 76.535156 7.546875 76.332031 C 6.035156 74.121094 5.332031 71.523438 4.386719 68.609375 C 3.0625 63.820312 2.136719 59.328125 2.289062 54.035156 C 2.339844 52.566406 2.402344 51.320312 2.546875 50.066406 C 3.613281 52.828125 6.007812 54.878906 8.796875 55.902344 C 13.914062 58.203125 19.679688 57.433594 24.855469 55.75 C 24.128906 55.742188 23.402344 55.71875 22.675781 55.710938 C 20.199219 55.675781 17.722656 55.675781 15.273438 55.273438 C 15.367188 55.285156 15.457031 55.296875 15.550781 55.308594 C 12.273438 54.707031 8.863281 54.140625 5.886719 52.582031 C 4.332031 51.710938 3.523438 50.820312 2.605469 49.609375 C 2.75 48.507812 2.964844 47.382812 3.289062 46.066406 C 4.269531 42.238281 5.0625 38.332031 6.414062 34.609375 C 10.492188 31.484375 16.210938 30.007812 21.09375 29.332031 C 29.953125 28.449219 37.917969 30.835938 44.292969 36.867188 C 44.875 38.621094 44.957031 40.445312 45.207031 42.464844 C 45.53125 46.519531 46.179688 50.546875 46.253906 54.617188 C 46.4375 58.457031 45.832031 62.257812 45.46875 66.070312 Z M 48.167969 49.191406 C 47.566406 44.421875 47.082031 38.035156 43.246094 34.679688 C 43.640625 35.285156 43.9375 35.890625 44.167969 36.503906 C 41.804688 32.625 38.316406 29.386719 33.820312 28.199219 C 24.578125 25.539062 10.847656 26.480469 5.390625 35.460938 C 5.453125 35.402344 5.523438 35.34375 5.589844 35.285156 C 0.1875 43.222656 -0.921875 53.449219 0.664062 62.777344 C 1.722656 68.28125 3.515625 74.484375 8.476562 77.710938 C 15.351562 84.601562 28.242188 84.640625 36.984375 81.953125 C 39.878906 80.90625 42.207031 78.777344 44.167969 76.449219 C 44.160156 76.46875 44.15625 76.484375 44.152344 76.5 C 44.179688 76.457031 44.210938 76.410156 44.238281 76.363281 C 44.453125 76.109375 44.664062 75.847656 44.871094 75.589844 C 44.785156 75.648438 44.699219 75.707031 44.609375 75.765625 C 48.378906 69.320312 49.0625 56.230469 48.167969 49.191406 "
            fill-opacity="1" fill-rule="nonzero" />
    </g>
    <path fill="#231f20"
        d="M 50.722656 12.992188 C 50.378906 15.070312 48.957031 16.34375 47.386719 17.820312 C 45.492188 19.640625 43.730469 20.53125 41.421875 21.535156 C 38.667969 22.679688 35.855469 23.789062 32.847656 24.015625 C 31.410156 24.0625 29.902344 24.347656 28.492188 24.007812 C 30.59375 24.988281 32.996094 25.398438 35.367188 25.304688 C 36.335938 26.011719 36.984375 26.453125 37.863281 27.210938 C 40.019531 29.109375 41.542969 31.585938 43.558594 33.617188 C 43.539062 33.566406 43.519531 33.515625 43.5 33.460938 C 42.144531 29.261719 40.398438 26.429688 36.4375 25.226562 C 37.515625 25.117188 38.578125 24.902344 39.589844 24.589844 C 43.070312 23.554688 46.503906 21.84375 48.582031 18.769531 C 49.8125 17.113281 51.054688 15.136719 50.722656 12.992188 "
        fill-opacity="1" fill-rule="nonzero" />
    <path fill="#231f20"
        d="M 46.746094 24.132812 C 45.644531 28.347656 45.585938 32.878906 47.054688 37.011719 C 47.222656 33.785156 47.589844 31.34375 48.074219 27.898438 C 48.269531 24.804688 48.363281 22.351562 49.023438 19.203125 C 48.023438 20.722656 47.238281 22.386719 46.746094 24.132812 "
        fill-opacity="1" fill-rule="nonzero" />
    <path fill="#231f20"
        d="M 55.832031 15.667969 C 55.382812 11.742188 52.710938 8.402344 49.554688 6.164062 C 53.757812 12.128906 54.34375 17.710938 54.730469 24.757812 C 55.613281 21.839844 56.230469 18.71875 55.832031 15.667969 "
        fill-opacity="1" fill-rule="nonzero" />
    <g clip-path="url(#fa01b6ee91)">
        <path fill="#231f20"
            d="M 13.375 14.019531 C 14.195312 11.421875 15.34375 9.066406 16.601562 6.710938 C 21.496094 2.964844 27.847656 2.484375 33.816406 2.667969 C 40.132812 3.167969 46.609375 4.152344 51.199219 8.859375 C 50.96875 8.375 50.691406 7.914062 50.394531 7.46875 C 46.472656 1.535156 38.734375 0.460938 32.128906 0.382812 C 26.226562 0.128906 20.070312 1.617188 16.507812 6.605469 C 16.492188 6.621094 16.476562 6.636719 16.460938 6.652344 C 9.886719 12.480469 8.429688 21.589844 10.292969 29.835938 C 10.816406 24.542969 11.933594 19.167969 13.375 14.019531 "
            fill-opacity="1" fill-rule="nonzero" />
    </g>
    <path fill="#231f20"
        d="M 22.695312 22.957031 C 22.621094 22.945312 22.550781 22.929688 22.480469 22.910156 C 20.621094 22.414062 18.917969 21.703125 17.234375 20.886719 C 15.738281 20.257812 14.234375 19.558594 13.1875 18.28125 C 14.328125 22.09375 19.039062 23.71875 22.695312 22.957031 "
        fill-opacity="1" fill-rule="nonzero" />
    <path fill="#231f20"
        d="M 12.613281 26.289062 C 13.546875 25.863281 14.253906 25.5625 15.164062 25.296875 C 16.628906 24.851562 18.109375 24.320312 19.621094 24.089844 C 19.570312 24.066406 19.519531 24.046875 19.472656 24.027344 C 16.980469 23.300781 14.148438 24.179688 12.613281 26.289062 "
        fill-opacity="1" fill-rule="nonzero" />
    <path fill="#231f20"
        d="M 12.046875 36.535156 C 12.910156 40.605469 21.464844 38.824219 20.609375 34.75 C 19.75 30.679688 11.191406 32.460938 12.046875 36.535156 "
        fill-opacity="1" fill-rule="nonzero" />
    <path fill="#231f20"
        d="M 35.605469 34.339844 C 34.820312 30.570312 26.246094 32.355469 27.046875 36.121094 C 27.835938 39.886719 36.40625 38.105469 35.605469 34.339844 "
        fill-opacity="1" fill-rule="nonzero" />
    <path fill="#231f20"
        d="M 32.945312 18.144531 C 33.191406 21.941406 41.085938 21.441406 40.84375 17.644531 C 40.597656 13.84375 32.703125 14.34375 32.945312 18.144531 "
        fill-opacity="1" fill-rule="nonzero" />
    <path fill="#231f20"
        d="M 35.613281 11.972656 C 35.394531 8.5 27.484375 9 27.714844 12.472656 C 27.933594 15.945312 35.839844 15.445312 35.613281 11.972656 "
        fill-opacity="1" fill-rule="nonzero" />
    <path fill="#231f20"
        d="M 30.394531 6.546875 C 30.175781 3.074219 22.269531 3.578125 22.496094 7.050781 C 22.714844 10.523438 30.625 10.019531 30.394531 6.546875 "
        fill-opacity="1" fill-rule="nonzero" />
    <path fill="#231f20"
        d="M 48.390625 32.527344 C 49.414062 32.855469 50.726562 24.769531 49.652344 24.761719 C 48.632812 24.433594 47.320312 32.519531 48.390625 32.527344 "
        fill-opacity="1" fill-rule="nonzero" />
    <path fill="#231f20"
        d="M 34.050781 46.320312 C 33.523438 41.523438 24.347656 42.496094 24.851562 47.296875 C 25.378906 52.09375 34.554688 51.117188 34.050781 46.320312 "
        fill-opacity="1" fill-rule="nonzero" />
    <path fill="#231f20"
        d="M 10.148438 47.894531 C 10.613281 52.226562 19.808594 51.25 19.34375 46.917969 C 18.878906 42.589844 9.683594 43.5625 10.148438 47.894531 "
        fill-opacity="1" fill-rule="nonzero" />
    <path fill="#231f20"
        d="M 18.597656 70.601562 C 17.871094 73.902344 26.402344 75.71875 27.097656 72.414062 C 27.828125 69.113281 19.292969 67.296875 18.597656 70.601562 "
        fill-opacity="1" fill-rule="nonzero" />
    <path fill="#231f20"
        d="M 72.152344 57.890625 C 73.570312 55.078125 65.832031 51.296875 64.457031 54.128906 C 63.042969 56.9375 70.777344 60.71875 72.152344 57.890625 "
        fill-opacity="1" fill-rule="nonzero" />
    <path fill="#231f20"
        d="M 76.3125 36.058594 C 75.378906 40.035156 83.726562 41.96875 84.660156 37.996094 C 85.589844 34.019531 77.246094 32.082031 76.3125 36.058594 "
        fill-opacity="1" fill-rule="nonzero" />
    <path fill="#231f20"
        d="M 69.554688 28.628906 C 69.273438 32.703125 77.820312 33.289062 78.105469 29.214844 C 78.386719 25.144531 69.839844 24.554688 69.554688 28.628906 "
        fill-opacity="1" fill-rule="nonzero" />
    <path fill="#231f20"
        d="M 64.472656 20.769531 C 64.210938 24.574219 72.101562 25.113281 72.367188 21.3125 C 72.628906 17.507812 64.738281 16.96875 64.472656 20.769531 "
        fill-opacity="1" fill-rule="nonzero" />
    <path fill="#231f20"
        d="M 110.777344 29.511719 C 109.871094 33.207031 119.089844 35.410156 119.96875 31.703125 C 120.878906 28.007812 111.65625 25.804688 110.777344 29.511719 "
        fill-opacity="1" fill-rule="nonzero" />
    <path fill="#231f20"
        d="M 132.1875 27.175781 C 133.097656 23.476562 123.875 21.277344 122.996094 24.984375 C 122.089844 28.679688 131.3125 30.878906 132.1875 27.175781 "
        fill-opacity="1" fill-rule="nonzero" />
    <path fill="#231f20"
        d="M 131.964844 34.5625 C 131.054688 38.261719 140.277344 40.460938 141.15625 36.757812 C 142.0625 33.058594 132.84375 30.859375 131.964844 34.5625 "
        fill-opacity="1" fill-rule="nonzero" />
    <path fill="#231f20"
        d="M 121.996094 32.1875 C 121.085938 35.882812 130.308594 38.082031 131.1875 34.378906 C 132.097656 30.679688 122.875 28.480469 121.996094 32.1875 "
        fill-opacity="1" fill-rule="nonzero" />
    <path fill="#231f20"
        d="M 119.570312 39.183594 C 118.59375 43.148438 128.480469 45.507812 129.421875 41.535156 C 130.394531 37.566406 120.511719 35.207031 119.570312 39.183594 "
        fill-opacity="1" fill-rule="nonzero" />
    <path fill="#231f20"
        d="M 146.316406 48.234375 C 144.773438 46.492188 138.691406 52.042969 140.308594 53.71875 C 141.855469 55.460938 147.933594 49.910156 146.316406 48.234375 "
        fill-opacity="1" fill-rule="nonzero" />
    <path fill="#231f20"
        d="M 143.074219 54.917969 C 141.53125 53.171875 135.453125 58.722656 137.070312 60.398438 C 138.613281 62.144531 144.691406 56.59375 143.074219 54.917969 "
        fill-opacity="1" fill-rule="nonzero" />
    <path fill="#231f20"
        d="M 134.894531 53.425781 C 133.347656 51.683594 127.269531 57.234375 128.886719 58.910156 C 130.429688 60.652344 136.507812 55.101562 134.894531 53.425781 "
        fill-opacity="1" fill-rule="nonzero" />
    <path fill="#231f20"
        d="M 132.285156 59.554688 C 130.742188 57.8125 124.664062 63.363281 126.28125 65.039062 C 127.824219 66.785156 133.902344 61.234375 132.285156 59.554688 "
        fill-opacity="1" fill-rule="nonzero" />
    <path fill="#231f20"
        d="M 130.25 65.375 C 128.703125 63.632812 122.625 69.183594 124.242188 70.859375 C 125.785156 72.605469 131.863281 67.054688 130.25 65.375 "
        fill-opacity="1" fill-rule="nonzero" />
    <path fill="#231f20"
        d="M 115.230469 58.914062 C 117.84375 57.628906 113.851562 49.851562 111.273438 51.199219 C 108.660156 52.484375 112.652344 60.261719 115.230469 58.914062 "
        fill-opacity="1" fill-rule="nonzero" />
    <path fill="#231f20"
        d="M 105.4375 50.363281 C 102.828125 51.65625 106.582031 58.976562 109.167969 57.636719 C 111.777344 56.339844 108.023438 49.023438 105.4375 50.363281 "
        fill-opacity="1" fill-rule="nonzero" />
    <path fill="#231f20"
        d="M 103.597656 57.570312 C 106.046875 56.367188 102.285156 49.039062 99.867188 50.300781 C 97.421875 51.503906 101.183594 58.832031 103.597656 57.570312 "
        fill-opacity="1" fill-rule="nonzero" />
    <path fill="#231f20"
        d="M 89.566406 53.027344 C 90.449219 53.515625 93.273438 45.484375 92.277344 45.320312 C 91.394531 44.832031 88.570312 52.863281 89.566406 53.027344 "
        fill-opacity="1" fill-rule="nonzero" />
</svg>