<svg xmlns="http://www.w3.org/2000/svg" xmlns:xlink="http://www.w3.org/1999/xlink" width="417" zoomAndPan="magnify"
    viewBox="0 0 312.75 401.999985" height="536" preserveAspectRatio="xMidYMid meet" version="1.0">
    <defs>
        <g />
        <clipPath id="e8a25d033f">
            <path d="M 0 0.160156 L 312.5 0.160156 L 312.5 401.839844 L 0 401.839844 Z M 0 0.160156 "
                clip-rule="nonzero" />
        </clipPath>
        <clipPath id="eeab189341">
            <path d="M 9.75 7.839844 L 303.578125 7.839844 L 303.578125 384 L 9.75 384 Z M 9.75 7.839844 "
                clip-rule="nonzero" />
        </clipPath>
        <clipPath id="7aa2f362c6">
            <path
                d="M 303.578125 7.839844 L 303.578125 331.046875 L 156.664062 383.9375 L 9.75 331.046875 L 9.75 7.839844 Z M 303.578125 7.839844 "
                clip-rule="nonzero" />
        </clipPath>
        <clipPath id="415af3f552">
            <path
                d="M 234.335938 314.0625 L 303.28125 314.0625 L 303.28125 383.753906 L 234.335938 383.753906 Z M 234.335938 314.0625 "
                clip-rule="nonzero" />
        </clipPath>
        <clipPath id="5fe8752dfa">
            <path d="M 13 315 L 96 315 L 96 388.773438 L 13 388.773438 Z M 13 315 " clip-rule="nonzero" />
        </clipPath>
        <clipPath id="d0cd7167fd">
            <path
                d="M 125.214844 339.773438 L 187.285156 339.773438 L 187.285156 401.839844 L 125.214844 401.839844 Z M 125.214844 339.773438 "
                clip-rule="nonzero" />
        </clipPath>
        <clipPath id="f80902a56b">
            <path d="M 69 81.632812 L 244 81.632812 L 244 256 L 69 256 Z M 69 81.632812 " clip-rule="nonzero" />
        </clipPath>
    </defs>
    <g clip-path="url(#e8a25d033f)">
        <path fill="#ffffff" d="M 0 0.160156 L 312.5 0.160156 L 312.5 401.839844 L 0 401.839844 Z M 0 0.160156 "
            fill-opacity="1" fill-rule="nonzero" />
        <path fill="#4a2c1f" d="M 0 0.160156 L 312.5 0.160156 L 312.5 401.839844 L 0 401.839844 Z M 0 0.160156 "
            fill-opacity="1" fill-rule="nonzero" />
    </g>
    <g clip-path="url(#eeab189341)">
        <g clip-path="url(#7aa2f362c6)">
            <path fill="#ffffff"
                d="M 9.75 7.839844 L 303.578125 7.839844 L 303.578125 384.304688 L 9.75 384.304688 Z M 9.75 7.839844 "
                fill-opacity="1" fill-rule="nonzero" />
        </g>
    </g>
    <g clip-path="url(#415af3f552)">
        <path fill="#1f130d"
            d="M 303.566406 328.351562 C 303.566406 328.351562 302.847656 364.980469 268.949219 383.875 C 235.039062 364.980469 234.335938 328.351562 234.335938 328.351562 L 248.304688 314.128906 L 289.601562 314.128906 Z M 303.566406 328.351562 "
            fill-opacity="1" fill-rule="nonzero" />
    </g>
    <g clip-path="url(#5fe8752dfa)">
        <path fill="#1f130d"
            d="M 94.734375 333.421875 C 90.148438 309.84375 61.414062 309.449219 54.332031 331.492188 C 47.246094 309.449219 18.511719 309.84375 13.929688 333.421875 C 9.769531 354.8125 54.332031 388.5625 54.332031 388.5625 C 54.332031 388.5625 98.890625 354.8125 94.734375 333.421875 Z M 94.734375 333.421875 "
            fill-opacity="1" fill-rule="nonzero" />
    </g>
    <g clip-path="url(#d0cd7167fd)">
        <path fill="#1f130d"
            d="M 187.285156 358.042969 C 187.285156 353 183.195312 348.910156 178.152344 348.910156 C 178.152344 343.863281 174.0625 339.773438 169.015625 339.773438 C 163.78125 339.773438 159.292969 343.511719 158.34375 348.660156 L 156.25 360.023438 L 154.160156 348.660156 C 153.210938 343.511719 148.722656 339.773438 143.484375 339.773438 C 138.441406 339.773438 134.351562 343.863281 134.351562 348.910156 C 129.304688 348.910156 125.214844 353 125.214844 358.042969 C 125.214844 363.277344 128.953125 367.765625 134.101562 368.714844 L 145.464844 370.808594 L 134.101562 372.898438 C 128.953125 373.847656 125.214844 378.335938 125.214844 383.574219 C 125.214844 388.617188 129.304688 392.707031 134.351562 392.707031 C 134.351562 397.753906 138.441406 401.84375 143.484375 401.84375 L 143.488281 401.84375 C 148.722656 401.84375 153.210938 398.105469 154.160156 392.957031 L 156.25 381.59375 L 158.34375 392.957031 C 159.292969 398.105469 163.78125 401.84375 169.015625 401.84375 C 174.0625 401.84375 178.152344 397.753906 178.152344 392.707031 C 183.195312 392.707031 187.285156 388.617188 187.285156 383.574219 C 187.285156 378.335938 183.546875 373.847656 178.398438 372.898438 L 167.035156 370.808594 L 178.398438 368.714844 C 183.546875 367.765625 187.285156 363.277344 187.285156 358.042969 "
            fill-opacity="1" fill-rule="nonzero" />
    </g>
    <g fill="#ffffff" fill-opacity="1">
        <g transform="translate(142.887807, 380.92295)">
            <g>
                <path
                    d="M 16.59375 0 L 12.015625 0 L 12.015625 -4.578125 L 16.59375 -4.578125 Z M 16.59375 -5.890625 L 12.015625 -5.890625 C 12.015625 -7.515625 12.234375 -8.804688 12.671875 -9.765625 C 13.109375 -10.722656 13.648438 -11.476562 14.296875 -12.03125 C 14.941406 -12.582031 15.582031 -13.039062 16.21875 -13.40625 C 16.851562 -13.769531 17.382812 -14.148438 17.8125 -14.546875 C 18.238281 -14.953125 18.453125 -15.578125 18.453125 -16.421875 C 18.453125 -16.898438 18.375 -17.394531 18.21875 -17.90625 C 18.070312 -18.414062 17.671875 -18.859375 17.015625 -19.234375 C 16.359375 -19.609375 15.28125 -19.796875 13.78125 -19.796875 C 12.269531 -19.796875 11.1875 -19.648438 10.53125 -19.359375 C 9.875 -19.066406 9.46875 -18.648438 9.3125 -18.109375 C 9.164062 -17.566406 9.09375 -16.9375 9.09375 -16.21875 L 1.328125 -16.21875 C 1.328125 -18.1875 1.691406 -19.757812 2.421875 -20.9375 C 3.160156 -22.125 4.429688 -22.976562 6.234375 -23.5 C 8.046875 -24.03125 10.5625 -24.296875 13.78125 -24.296875 C 17 -24.296875 19.507812 -24.015625 21.3125 -23.453125 C 23.125 -22.890625 24.394531 -22.007812 25.125 -20.8125 C 25.851562 -19.625 26.21875 -18.09375 26.21875 -16.21875 C 26.1875 -15.007812 25.726562 -14.066406 24.84375 -13.390625 C 23.957031 -12.710938 22.925781 -12.113281 21.75 -11.59375 C 20.882812 -11.207031 20.0625 -10.78125 19.28125 -10.3125 C 18.5 -9.84375 17.851562 -9.257812 17.34375 -8.5625 C 16.84375 -7.863281 16.59375 -6.972656 16.59375 -5.890625 Z M 16.59375 -5.890625 " />
            </g>
        </g>
    </g>
    <g clip-path="url(#f80902a56b)">
        <path fill="#4a2c1f"
            d="M 156.03125 81.433594 C 155.082031 81.449219 154.144531 81.554688 153.214844 81.753906 C 152.285156 81.953125 151.382812 82.238281 150.511719 82.617188 C 149.636719 82.992188 148.8125 83.449219 148.027344 83.988281 C 147.246094 84.527344 146.523438 85.136719 145.863281 85.820312 C 145.199219 86.5 144.609375 87.238281 144.09375 88.039062 C 143.574219 88.835938 143.140625 89.675781 142.789062 90.558594 C 142.4375 91.441406 142.175781 92.347656 142.003906 93.285156 C 141.832031 94.21875 141.753906 95.160156 141.765625 96.109375 L 141.765625 154.027344 L 83.847656 154.027344 C 82.890625 154.011719 81.9375 154.09375 80.996094 154.269531 C 80.050781 154.445312 79.136719 154.710938 78.246094 155.070312 C 77.355469 155.425781 76.507812 155.867188 75.707031 156.394531 C 74.902344 156.921875 74.160156 157.519531 73.476562 158.195312 C 72.796875 158.867188 72.183594 159.601562 71.648438 160.398438 C 71.109375 161.191406 70.65625 162.03125 70.285156 162.917969 C 69.917969 163.800781 69.636719 164.714844 69.449219 165.65625 C 69.257812 166.597656 69.164062 167.546875 69.164062 168.503906 C 69.164062 169.464844 69.257812 170.414062 69.449219 171.355469 C 69.636719 172.296875 69.917969 173.210938 70.285156 174.09375 C 70.65625 174.980469 71.109375 175.820312 71.648438 176.613281 C 72.183594 177.410156 72.796875 178.144531 73.476562 178.816406 C 74.160156 179.492188 74.902344 180.089844 75.707031 180.617188 C 76.507812 181.140625 77.355469 181.585938 78.246094 181.941406 C 79.136719 182.300781 80.050781 182.566406 80.996094 182.742188 C 81.9375 182.917969 82.890625 183 83.847656 182.984375 L 141.765625 182.984375 L 141.765625 240.902344 C 141.75 241.859375 141.832031 242.8125 142.007812 243.753906 C 142.183594 244.699219 142.449219 245.613281 142.808594 246.503906 C 143.167969 247.394531 143.609375 248.242188 144.132812 249.042969 C 144.660156 249.847656 145.257812 250.589844 145.933594 251.273438 C 146.605469 251.953125 147.339844 252.566406 148.136719 253.101562 C 148.929688 253.640625 149.769531 254.09375 150.65625 254.464844 C 151.539062 254.832031 152.453125 255.113281 153.394531 255.300781 C 154.335938 255.492188 155.285156 255.585938 156.246094 255.585938 C 157.203125 255.585938 158.152344 255.492188 159.09375 255.300781 C 160.035156 255.113281 160.949219 254.832031 161.832031 254.464844 C 162.71875 254.09375 163.558594 253.640625 164.351562 253.101562 C 165.148438 252.566406 165.882812 251.953125 166.554688 251.273438 C 167.230469 250.589844 167.828125 249.847656 168.355469 249.042969 C 168.882812 248.242188 169.324219 247.394531 169.679688 246.503906 C 170.039062 245.613281 170.304688 244.699219 170.480469 243.753906 C 170.65625 242.8125 170.738281 241.859375 170.722656 240.902344 L 170.722656 182.984375 L 228.640625 182.984375 C 229.597656 183 230.550781 182.917969 231.492188 182.742188 C 232.4375 182.566406 233.351562 182.300781 234.242188 181.941406 C 235.132812 181.582031 235.980469 181.140625 236.78125 180.617188 C 237.585938 180.089844 238.328125 179.492188 239.011719 178.816406 C 239.695312 178.144531 240.304688 177.410156 240.839844 176.613281 C 241.378906 175.820312 241.832031 174.980469 242.203125 174.09375 C 242.574219 173.210938 242.851562 172.296875 243.042969 171.355469 C 243.230469 170.414062 243.324219 169.464844 243.324219 168.503906 C 243.324219 167.546875 243.230469 166.597656 243.042969 165.65625 C 242.851562 164.714844 242.574219 163.800781 242.203125 162.917969 C 241.832031 162.03125 241.378906 161.191406 240.839844 160.398438 C 240.304688 159.601562 239.695312 158.867188 239.011719 158.195312 C 238.328125 157.519531 237.585938 156.921875 236.78125 156.394531 C 235.980469 155.867188 235.132812 155.425781 234.242188 155.070312 C 233.351562 154.710938 232.4375 154.445312 231.492188 154.269531 C 230.550781 154.09375 229.597656 154.011719 228.640625 154.027344 L 170.722656 154.027344 L 170.722656 96.109375 C 170.738281 95.144531 170.652344 94.183594 170.472656 93.230469 C 170.296875 92.28125 170.023438 91.355469 169.660156 90.460938 C 169.292969 89.5625 168.84375 88.710938 168.308594 87.90625 C 167.773438 87.097656 167.164062 86.351562 166.480469 85.667969 C 165.792969 84.984375 165.046875 84.375 164.242188 83.839844 C 163.433594 83.304688 162.582031 82.855469 161.683594 82.492188 C 160.789062 82.128906 159.863281 81.859375 158.910156 81.679688 C 157.960938 81.5 157 81.417969 156.03125 81.433594 Z M 156.03125 81.433594 "
            fill-opacity="1" fill-rule="nonzero" />
    </g>
    <g fill="#ffffff" fill-opacity="1">
        <g transform="translate(255.181056, 359.115033)">
            <g>
                <path
                    d="M 16.59375 0 L 12.015625 0 L 12.015625 -4.578125 L 16.59375 -4.578125 Z M 16.59375 -5.890625 L 12.015625 -5.890625 C 12.015625 -7.515625 12.234375 -8.804688 12.671875 -9.765625 C 13.109375 -10.722656 13.648438 -11.476562 14.296875 -12.03125 C 14.941406 -12.582031 15.582031 -13.039062 16.21875 -13.40625 C 16.851562 -13.769531 17.382812 -14.148438 17.8125 -14.546875 C 18.238281 -14.953125 18.453125 -15.578125 18.453125 -16.421875 C 18.453125 -16.898438 18.375 -17.394531 18.21875 -17.90625 C 18.070312 -18.414062 17.671875 -18.859375 17.015625 -19.234375 C 16.359375 -19.609375 15.28125 -19.796875 13.78125 -19.796875 C 12.269531 -19.796875 11.1875 -19.648438 10.53125 -19.359375 C 9.875 -19.066406 9.46875 -18.648438 9.3125 -18.109375 C 9.164062 -17.566406 9.09375 -16.9375 9.09375 -16.21875 L 1.328125 -16.21875 C 1.328125 -18.1875 1.691406 -19.757812 2.421875 -20.9375 C 3.160156 -22.125 4.429688 -22.976562 6.234375 -23.5 C 8.046875 -24.03125 10.5625 -24.296875 13.78125 -24.296875 C 17 -24.296875 19.507812 -24.015625 21.3125 -23.453125 C 23.125 -22.890625 24.394531 -22.007812 25.125 -20.8125 C 25.851562 -19.625 26.21875 -18.09375 26.21875 -16.21875 C 26.1875 -15.007812 25.726562 -14.066406 24.84375 -13.390625 C 23.957031 -12.710938 22.925781 -12.113281 21.75 -11.59375 C 20.882812 -11.207031 20.0625 -10.78125 19.28125 -10.3125 C 18.5 -9.84375 17.851562 -9.257812 17.34375 -8.5625 C 16.84375 -7.863281 16.59375 -6.972656 16.59375 -5.890625 Z M 16.59375 -5.890625 " />
            </g>
        </g>
    </g>
    <g fill="#ffffff" fill-opacity="1">
        <g transform="translate(42.72522, 360.714065)">
            <g>
                <path
                    d="M 16.59375 0 L 12.015625 0 L 12.015625 -4.578125 L 16.59375 -4.578125 Z M 16.59375 -5.890625 L 12.015625 -5.890625 C 12.015625 -7.515625 12.234375 -8.804688 12.671875 -9.765625 C 13.109375 -10.722656 13.648438 -11.476562 14.296875 -12.03125 C 14.941406 -12.582031 15.582031 -13.039062 16.21875 -13.40625 C 16.851562 -13.769531 17.382812 -14.148438 17.8125 -14.546875 C 18.238281 -14.953125 18.453125 -15.578125 18.453125 -16.421875 C 18.453125 -16.898438 18.375 -17.394531 18.21875 -17.90625 C 18.070312 -18.414062 17.671875 -18.859375 17.015625 -19.234375 C 16.359375 -19.609375 15.28125 -19.796875 13.78125 -19.796875 C 12.269531 -19.796875 11.1875 -19.648438 10.53125 -19.359375 C 9.875 -19.066406 9.46875 -18.648438 9.3125 -18.109375 C 9.164062 -17.566406 9.09375 -16.9375 9.09375 -16.21875 L 1.328125 -16.21875 C 1.328125 -18.1875 1.691406 -19.757812 2.421875 -20.9375 C 3.160156 -22.125 4.429688 -22.976562 6.234375 -23.5 C 8.046875 -24.03125 10.5625 -24.296875 13.78125 -24.296875 C 17 -24.296875 19.507812 -24.015625 21.3125 -23.453125 C 23.125 -22.890625 24.394531 -22.007812 25.125 -20.8125 C 25.851562 -19.625 26.21875 -18.09375 26.21875 -16.21875 C 26.1875 -15.007812 25.726562 -14.066406 24.84375 -13.390625 C 23.957031 -12.710938 22.925781 -12.113281 21.75 -11.59375 C 20.882812 -11.207031 20.0625 -10.78125 19.28125 -10.3125 C 18.5 -9.84375 17.851562 -9.257812 17.34375 -8.5625 C 16.84375 -7.863281 16.59375 -6.972656 16.59375 -5.890625 Z M 16.59375 -5.890625 " />
            </g>
        </g>
    </g>
</svg>